<svg width="1440" height="635" viewBox="0 0 1440 635" fill="none" xmlns="http://www.w3.org/2000/svg">
<path fill-rule="evenodd" clip-rule="evenodd" d="M914.102 -1.62988L914.102 -1.6275L914.103 -1.6239C922.548 26.46 930.243 52.0485 938.081 74.1998C995.411 236.233 1089.12 251.064 1202.88 269.068C1252.56 276.929 1306.05 285.395 1362.01 306.987C1405.32 323.697 1468.39 366.469 1549.1 421.194C1811.48 599.12 2260.2 903.392 2821.55 849.064C2953.91 836.253 3033.99 801.137 3075.25 751.665C2943.1 956.496 2577.85 1185.66 1955.47 854.116C1685.11 710.089 1677.61 850.792 1670.22 989.324C1663.55 1114.29 1656.98 1237.48 1457.66 1148.33C1065.76 973.057 1378.01 1422.49 1586.96 1723.25C1602.1 1745.05 1616.7 1766.06 1630.45 1786H3124.71V816.016V644.57C3134.47 608.089 3134.39 577.285 3124.71 557.37V644.57C3119.72 663.25 3112.15 683.419 3101.97 704.377C3163.4 524.54 2880.99 226.142 2672.57 55.6208C2630.31 4.24072 2625.46 20.4014 2612.47 63.681C2583.21 161.16 2512.66 396.208 1880.42 306.987C1393.3 238.245 1588.36 217.066 1700.43 204.897C1725.33 202.193 1746.14 199.934 1754.45 197.697C1823.49 179.118 1929.26 58.7682 1789.58 20.6477C1487.41 -61.8173 1342.25 -380.903 1280.45 -516.768C1251.57 -580.252 1240.89 -603.734 1240.89 -544.38C1240.89 -102.189 1518.54 -8.64545 1600.11 18.8365L1600.14 18.8468C1602.02 19.4811 1603.8 20.0803 1605.47 20.6477C1679.35 45.7843 1801.69 129.938 1496.46 129.938C1191.23 129.938 1146.41 -63.5054 1209.4 -219.79C1272.38 -376.074 1114.52 -897.041 567.412 -985.846C-158.301 -1103.64 -337.684 -756.896 -298.117 -669.829C685.65 -761.342 833.798 -268.679 914.102 -1.62988ZM-1181.11 -111.482C-976.003 -64.4879 -521.71 -18.5864 -345.355 -210.936C-124.911 -451.374 246.562 -421.711 374.5 -151.5C457.241 23.2533 345 186 227.558 217.479C120.459 246.186 23.2229 207.289 -46.5498 179.379L-46.5513 179.378C-52.9567 176.816 -59.1306 174.346 -65.0593 172.03C-71.7257 157.453 -91.1832 149.961 -118.671 147.49C-148.484 130.73 -195.793 100.241 -277.526 40.4301C-431.352 -72.1384 -557.32 21.8508 -345.355 100.54C-337.078 103.612 -328.867 106.637 -320.75 109.627C-281.592 124.051 -244.615 137.671 -212.881 152.037C-311.931 165.249 -434.883 199.117 -499.627 218.065C-376.231 304.563 -208.897 357.014 -110.281 263.883C-116.136 312.882 -170.079 378.273 -298.117 473.217C-631.206 720.212 -296.906 721.304 -179.416 696.168C-132.793 686.193 -130.23 661.762 -127.146 632.367C-122.458 587.687 -116.566 531.54 47.0845 497.261C318.4 440.43 1108.12 381.413 1362.48 625.129C1616.84 868.845 1330.99 1206.55 989.423 1036.06C885.648 984.26 779.302 899.776 681.968 822.451L681.966 822.45C458.932 645.264 283.214 505.669 294.176 883.052C306.773 1316.71 708.013 1427.32 907.059 1428.41L1353.52 1786H-82.2676C-136.053 1786 -154.976 1731.56 -183.283 1650.13C-262.687 1421.7 -415.926 980.861 -1619.57 933.326C-1897.31 922.358 -1480.72 835.737 -1341.83 816.016C-706.772 725.842 -550.187 691.587 -1078.15 557.37C-1559.48 435.009 -1696.72 -291.26 -1181.11 -111.482Z" fill="url(#paint0_linear_2741_21957)"/>
<defs>
<linearGradient id="paint0_linear_2741_21957" x1="-24.4803" y1="-127.217" x2="957.928" y2="1306.15" gradientUnits="userSpaceOnUse">
<stop stop-color="#6414EE"/>
<stop offset="1" stop-color="#0069FF" stop-opacity="0"/>
</linearGradient>
</defs>
</svg>